<svg fill="none" height="187" viewBox="0 0 188 187" width="188" xmlns="http://www.w3.org/2000/svg"><path d="m93.8763 186.715c51.5597 0 93.3577-41.798 93.3577-93.3575 0-51.5599-41.798-93.3575-93.3577-93.3575-51.5599 0-93.357501 41.7976-93.357501 93.3575 0 51.5595 41.797601 93.3575 93.357501 93.3575z" fill="#f49b16"/><path d="m0 94.2219c.518653 51.1741 42.0109 92.4931 93.3575 92.4931 51.3465 0 92.8385-41.319 93.3575-92.4931z" fill="#ce7b0d"/><g fill="#fff"><path d="m58.9531 143.667h-17.2884c-2.0746 0-2.939-1.729-1.9017-3.804l15.5596-31.81c1.0373-2.075 3.6306-3.804 5.7052-3.804h17.2884c2.0746 0 2.939 1.729 1.9017 3.804l-15.5596 31.81c-1.0373 2.075-3.6306 3.804-5.7052 3.804z"/><path d="m90.2455 143.667h-17.2885c-2.0746 0-2.9391-1.729-1.9017-3.804l15.5595-31.81c1.0373-2.075 3.6306-3.804 5.7052-3.804h17.288c2.075 0 2.939 1.729 1.902 3.804l-15.5594 31.81c-1.0373 2.075-3.6305 3.804-5.7051 3.804z"/><path d="m121.537 143.667h-17.288c-2.075 0-2.939-1.729-1.902-3.804l15.56-31.81c1.037-2.075 3.63-3.804 5.705-3.804h17.288c2.075 0 2.939 1.729 1.902 3.804l-15.56 31.81c-1.037 2.075-3.63 3.804-5.705 3.804z"/><path d="m63.7938 63.6213c-1.9017 1.9017-5.0136 1.9017-6.9154 0l-6.7424-6.7424c-1.9017-1.9017-1.9017-5.0136 0-6.9154 1.9017-1.9017 5.0137-1.9017 6.9154 0l6.7424 6.7424c1.9017 2.0747 1.9017 5.0137 0 6.9154z"/><path d="m126.897 63.6213c1.902 1.9017 5.014 1.9017 6.915 0l6.743-6.7424c1.902-1.9017 1.902-5.0136 0-6.9154-1.902-1.9017-5.014-1.9017-6.915 0l-6.743 6.7424c-1.902 2.0747-1.902 5.0137 0 6.9154z"/><path d="m95.2589 50.4822c2.5933 0 4.8411-2.2475 4.8411-4.8407v-9.6816c0-2.5933-2.2478-4.8408-4.8411-4.8408-2.5932 0-4.8407 2.2475-4.8407 4.8408v9.6816c0 2.7661 2.2475 4.8407 4.8407 4.8407z"/><path d="m50.6548 95.2591c0-2.5932-2.2475-4.8407-4.8407-4.8407h-9.6816c-2.5933 0-4.8408 2.2475-4.8408 4.8407 0 2.5933 2.2475 4.8409 4.8408 4.8409h9.6816c2.5932 0 4.8407-2.2476 4.8407-4.8409z"/><path d="m158.708 95.2591c0-2.5932-2.248-4.8407-4.841-4.8407h-9.682c-2.593 0-4.841 2.2475-4.841 4.8407 0 2.5933 2.248 4.8409 4.841 4.8409h9.682c2.593 0 4.841-2.2476 4.841-4.8409z"/><path d="m132.429 97.8524-8.298-.3457c0-.3457 0-.8644 0-1.2102 0-15.7324-12.794-28.6988-28.6992-28.6988-15.7324 0-28.6988 12.7935-28.6988 28.6988v1.2102l-8.2984.3457c0-.5186 0-1.0372 0-1.5559 0-20.4003 16.5969-36.9972 36.9972-36.9972 20.4002 0 36.9972 16.5969 36.9972 36.9972z"/></g></svg>