<svg width="188" height="187" viewBox="0 0 188 187" fill="none" xmlns="http://www.w3.org/2000/svg">
<path d="M93.8763 186.715C145.436 186.715 187.234 144.917 187.234 93.3575C187.234 41.7976 145.436 0 93.8763 0C42.3164 0 0.518799 41.7976 0.518799 93.3575C0.518799 144.917 42.3164 186.715 93.8763 186.715Z" fill="#E2211D"/>
<path d="M0 94.2219C0.518653 145.396 42.0109 186.715 93.3575 186.715C144.704 186.715 186.196 145.396 186.715 94.2219H0Z" fill="#B20F0F"/>
<path d="M73.6485 70.0182C61.028 81.0828 59.8178 100.273 70.8824 112.721C81.947 125.341 101.137 126.551 113.585 115.487C126.205 104.422 127.416 85.2319 116.351 72.7843C105.459 60.1637 86.2691 58.9536 73.6485 70.0182ZM108.744 109.954C99.2354 118.253 84.7131 117.388 76.4147 107.88C68.1163 98.3712 68.9807 83.8489 78.4893 75.5505C87.998 67.0792 102.52 68.1165 110.819 77.6251C119.29 87.1338 118.253 101.656 108.744 109.954Z" fill="white"/>
<path d="M144.704 97.1609C144.877 95.2592 144.877 93.1846 144.877 91.11C144.877 89.2083 144.704 87.1336 144.358 85.2319L134.158 83.503L130.7 73.9944L137.443 66.2146C135.368 62.7569 132.948 59.6451 130.182 56.8789L121.019 61.5467L112.547 55.8416L113.412 45.6415C109.954 44.0855 106.151 43.0482 102.347 42.3566L97.5065 51.5195L87.3064 51.6924L82.1198 42.8753C78.1435 43.7397 74.5129 45.1227 70.8824 46.8516L72.4383 57.0518L64.3127 63.2756L54.8041 59.1264C52.2109 62.0654 49.9634 65.3502 48.0616 68.8079L55.3228 76.069L52.3837 85.7505L42.3565 87.9981C42.1836 90.0727 42.1836 92.1473 42.1836 94.2219C42.1836 96.1236 42.3565 98.0253 42.7022 99.927L52.9024 101.656L56.3601 111.337L49.6176 119.117C51.6922 122.575 54.1126 125.687 56.8787 128.453L66.0416 123.785L74.5129 129.49L73.4756 139.69C77.1062 141.246 80.9096 142.284 84.886 142.975L89.5538 133.812L99.754 133.467L104.941 142.284C108.917 141.419 112.547 140.036 116.178 138.307L114.622 128.107L122.748 121.883L132.256 125.86C134.85 122.921 137.097 119.636 138.999 116.005L131.738 108.744L134.677 98.8898L144.704 97.1609ZM115.832 118.08C101.829 130.355 80.7367 128.972 68.462 114.968C56.1872 100.964 57.5703 79.8725 71.5739 67.5977C85.5775 55.3229 106.842 56.7061 118.944 70.7097C131.219 84.5404 129.836 105.805 115.832 118.08Z" fill="white"/>
</svg>
