<svg fill="none" height="188" viewBox="0 0 188 188" width="188" xmlns="http://www.w3.org/2000/svg"><path d="m93.3575 186.715c51.5595 0 93.3575-41.798 93.3575-93.3575 0-51.5599-41.798-93.3575-93.3575-93.3575-51.5599 0-93.3575 41.7976-93.3575 93.3575 0 51.5595 41.7976 93.3575 93.3575 93.3575z" fill="#901a21"/><path d="m1.03735 94.5677c.51866 51.1733 42.01085 92.4933 93.35745 92.4933 51.3462 0 92.8392-41.32 93.3572-92.4933z" fill="#ed1c24"/><g fill="#fff"><path d="m90.7641 64.6587c.1729-1.2102.1729-2.4204.1729-3.6306s-.1729-2.2475-.3458-3.4577l-6.0509-1.0372-2.0746-5.7052 3.9763-4.6679c-1.2102-2.0746-2.5933-3.9764-4.3221-5.5323l-5.5322 2.7662-5.0137-3.4577.5186-6.0509c-2.0746-.8645-4.3221-1.5561-6.5696-1.9018l-2.7661 5.3595-6.0509.1728-3.112-5.3594c-2.2475.5187-4.495 1.383-6.5696 2.4203l.8644 6.051-4.8407 3.6306-5.5323-2.4204c-1.556 1.7288-2.939 3.6306-3.9763 5.8781l4.3221 4.3221-1.7289 5.878-6.0509 1.3831c-.1729 1.2102-.1729 2.4204-.1729 3.6306s.1728 2.2474.3457 3.2847l6.051 1.0374 2.0746 5.7052-3.9763 4.6678c1.2102 2.0747 2.5932 3.9764 4.3221 5.5324l5.5323-2.7662 5.0136 3.4576-.5187 6.051c2.0747.8644 4.3222 1.556 6.7426 2.0746l2.7661-5.3594 6.0509-.1729 3.1119 5.1865c2.2475-.5186 4.4951-1.383 6.5697-2.4203l-.8644-6.0509 4.8407-3.6307 5.7052 2.4205c1.5559-1.7289 2.939-3.8035 3.9763-5.8781l-4.3221-4.3222 1.7288-5.878zm-17.1155 12.4477c-8.2984 7.2612-20.919 6.3967-28.1801-1.9018-7.2611-8.2984-6.3967-20.9189 1.7289-28.1801 8.2984-7.2611 20.9189-6.3967 28.1801 1.9017 7.2611 8.2985 6.3967 20.9191-1.7289 28.1802z"/><path d="m162.511 118.08c.173-1.729.173-3.458.173-5.187 0-1.728-.173-3.457-.519-5.013l-8.817-1.383-2.939-8.2988 5.878-6.7424c-1.728-2.939-3.976-5.7052-6.396-8.1256l-7.953 3.9763-7.434-5.0135.864-8.99c-3.111-1.2102-6.223-2.2476-9.681-2.7663l-4.149 7.9528-8.99.1728-4.495-7.7798c-3.458.8645-6.743 1.9018-9.6818 3.4577l1.383 8.8172-7.0882 5.3593-8.2984-3.6305c-2.2475 2.5933-4.3221 5.3594-5.8781 8.4713l6.2238 6.3967-2.5933 8.4718-8.817 1.901c-.1729 1.729-.1729 3.631-.1729 5.36 0 1.728.1729 3.284.5187 5.013l8.817 1.556 2.9391 8.472-5.8781 6.742c1.7288 2.939 3.9763 5.705 6.3967 8.299l8.1256-3.977 7.4339 5.014-.864 8.99c3.112 1.383 6.396 2.42 9.854 2.939l4.149-7.953 8.817-.173 4.668 7.78c3.458-.864 6.743-1.902 9.682-3.458l-1.383-8.817 7.088-5.359 8.298 3.458c2.248-2.594 4.15-5.533 5.878-8.472l-6.396-6.396 2.42-8.645zm-25.241 18.153c-12.102 10.719-30.773 9.508-41.4921-2.594-10.7188-12.274-9.5086-30.773 2.5933-41.4917 12.1018-10.7189 30.7738-9.5086 41.4918 2.7662 10.719 12.1015 9.509 30.6005-2.593 41.3195z"/></g></svg>