<svg fill="none" height="188" viewBox="0 0 189 188" width="189" xmlns="http://www.w3.org/2000/svg"><path d="m95.2005 187.79c51.5595 0 93.3575-41.798 93.3575-93.358 0-51.5599-41.798-93.35742-93.3575-93.35742-51.5599 0-93.35748 41.79752-93.35748 93.35742 0 51.56 41.79758 93.358 93.35748 93.358z" fill="#ed7e03"/><path d="m93.2987.728821c-51.1737.518649-92.493036 42.010879-92.493036 93.357479 0 51.3467 41.319336 92.8387 92.493036 93.3577z" fill="#bf6104"/><g fill="#fff"><path d="m93.1257 143.185c-30.4277-1.901-49.7907-5.705-63.1028-12.274l-1.2102-.519v-13.312l7.7798-2.593c-1.0373-29.9093 9.5087-48.9265 33.3667-59.9911l1.9017 3.9763c-22.302 10.3731-32.1564 28.6988-30.7734 57.5708v1.556l-7.7798 2.593v7.434c12.6206 5.878 31.8107 9.509 60.1637 11.237z"/><path d="m95.5461 94.4321h-4.3221v-46.333c-1.3831 0-2.5933 0-3.8035 0-6.3967-.1729-11.4104-.1729-13.3121 1.5559-.3458.3458-1.0373 1.2103-1.0373 3.2849v25.9326h-4.3221v-25.9326c0-2.7662.6916-4.8408 2.2475-6.3968 3.1119-3.1119 8.6442-2.939 16.424-2.7661h5.8781 2.2475z"/><path d="m93.4718 143.185-.3458-4.322c28.526-1.728 47.716-5.359 60.164-11.237v-7.434l-7.78-2.593v-1.556c1.383-28.872-8.299-47.1977-30.774-57.5708l1.902-3.9763c23.685 11.0646 34.404 30.2547 33.367 59.9911l7.78 2.593v13.312l-1.211.519c-13.312 6.742-32.848 10.546-63.1022 12.274z"/><path d="m95.5462 94.4321h-4.3221v-50.6551h2.2475 5.8781c7.7793-.1729 13.3123-.3458 16.4243 2.7661 1.556 1.556 2.247 3.6306 2.247 6.3968v25.9326h-4.322v-25.9326c0-2.0746-.519-2.7662-1.037-3.2849-1.902-1.7288-6.916-1.7288-13.3123-1.5559-1.2102 0-2.4204 0-3.8035 0z"/><path d="m131.333 114.832h-76.0688v4.323h76.0688z"/></g></svg>