<svg width="188" height="188" viewBox="0 0 188 188" fill="none" xmlns="http://www.w3.org/2000/svg">
<path d="M94.3948 187.061C145.955 187.061 187.752 145.263 187.752 93.7032C187.752 42.1433 145.955 0.345764 94.3948 0.345764C42.8349 0.345764 1.03735 42.1433 1.03735 93.7032C1.03735 145.263 42.8349 187.061 94.3948 187.061Z" fill="#901A21"/>
<path d="M92.493 0C41.3193 0.518653 0 42.0109 0 93.3575C0 144.704 41.3193 186.196 92.493 186.715V0Z" fill="#5B1017"/>
<path d="M88.8625 39.2448H72.0928V53.2483H88.8625V39.2448Z" fill="white"/>
<path d="M51.1882 46.6646L39.8518 59.0223L50.1711 68.4888L61.5075 56.1311L51.1882 46.6646Z" fill="white"/>
<path d="M120.503 59.0432L108.146 47.7068L98.679 58.0261L111.037 69.3625L120.503 59.0432Z" fill="white"/>
<path d="M131.046 79.6997H117.043V96.4694H131.046V79.6997Z" fill="white"/>
<path d="M46.6787 79.6997H32.675V96.4694H46.6787V79.6997Z" fill="white"/>
<path d="M62.9133 117.949L51.0554 106.091L41.1535 115.993L53.0114 127.851L62.9133 117.949Z" fill="white"/>
<path d="M89.8996 122.748H73.1299V136.751H89.8996V122.748Z" fill="white"/>
<path d="M80.564 81.0828C90.2455 77.6251 107.88 82.8116 100.791 98.717L121.019 119.809C134.158 112.721 140.382 122.402 138.999 132.602L127.588 126.378L120.5 136.924L131.046 145.741C119.982 150.582 107.88 147.643 109.954 127.243L90.5912 108.744C77.7978 112.721 70.7095 105.978 72.957 93.8761L85.2318 101.829L93.1845 90.4185L80.564 81.0828Z" fill="white"/>
<path d="M94.049 116.524C90.2456 118.253 85.9235 119.117 81.4285 119.117C64.1401 119.117 50.1365 105.114 50.1365 87.8251C50.1365 70.5367 64.1401 56.5332 81.4285 56.5332C98.7169 56.5332 112.721 70.5367 112.721 87.8251C112.721 92.6659 111.683 97.3339 109.609 101.31L116.005 105.805C118.599 100.619 120.155 94.7406 120.155 88.3439C120.155 66.9062 102.693 49.4449 81.2556 49.4449C59.818 49.4449 42.3567 66.9062 42.3567 88.3439C42.3567 109.782 59.818 127.243 81.2556 127.243C87.6523 127.243 93.5304 125.687 98.8898 122.921L94.049 116.524Z" fill="white"/>
</svg>
