<svg fill="none" height="188" viewBox="0 0 188 188" width="188" xmlns="http://www.w3.org/2000/svg"><path d="m94.3948 187.061c51.5602 0 93.3572-41.798 93.3572-93.3578 0-51.5599-41.797-93.357436-93.3572-93.357436-51.5599 0-93.35745 41.797536-93.35745 93.357436 0 51.5598 41.79755 93.3578 93.35745 93.3578z" fill="#901a21"/><path d="m92.493 0c-51.1737.518653-92.493 42.0109-92.493 93.3575 0 51.3465 41.3193 92.8385 92.493 93.3575z" fill="#5b1017"/><g fill="#fff"><path d="m88.8625 39.2448h-16.7697v14.0035h16.7697z"/><path d="m51.1882 46.6646-11.3364 12.3577 10.3193 9.4665 11.3364-12.3577z"/><path d="m120.503 59.0432-12.357-11.3364-9.467 10.3193 12.358 11.3364z"/><path d="m131.046 79.6997h-14.003v16.7697h14.003z"/><path d="m46.6787 79.6997h-14.0037v16.7697h14.0037z"/><path d="m62.9133 117.949-11.8579-11.858-9.9019 9.902 11.8579 11.858z"/><path d="m89.8996 122.748h-16.7697v14.003h16.7697z"/><path d="m80.564 81.0828c9.6815-3.4577 27.316 1.7288 20.227 17.6342l20.228 21.092c13.139-7.088 19.363 2.593 17.98 12.793l-11.411-6.224-7.088 10.546 10.546 8.817c-11.064 4.841-23.166 1.902-21.092-18.498l-19.3628-18.499c-12.7934 3.977-19.8817-2.766-17.6342-14.8679l12.2748 7.9529 7.9527-11.4105z"/><path d="m94.049 116.524c-3.8034 1.729-8.1255 2.593-12.6205 2.593-17.2884 0-31.292-14.003-31.292-31.2919 0-17.2884 14.0036-31.2919 31.292-31.2919s31.2925 14.0035 31.2925 31.2919c0 4.8408-1.038 9.5088-3.112 13.4849l6.396 4.495c2.594-5.186 4.15-11.0644 4.15-17.4611 0-21.4377-17.462-38.899-38.8994-38.899-21.4376 0-38.8989 17.4613-38.8989 38.899 0 21.4381 17.4613 38.8991 38.8989 38.8991 6.3967 0 12.2748-1.556 17.6342-4.322z"/></g></svg>