<svg width="188" height="187" viewBox="0 0 188 187" fill="none" xmlns="http://www.w3.org/2000/svg">
<path d="M93.8763 186.715C145.436 186.715 187.234 144.917 187.234 93.3575C187.234 41.7976 145.436 0 93.8763 0C42.3164 0 0.518799 41.7976 0.518799 93.3575C0.518799 144.917 42.3164 186.715 93.8763 186.715Z" fill="#F49B16"/>
<path d="M0 94.2219C0.518653 145.396 42.0109 186.715 93.3575 186.715C144.704 186.715 186.196 145.396 186.715 94.2219H0Z" fill="#CE7B0D"/>
<path d="M58.9531 143.667H41.6647C39.5901 143.667 38.7257 141.938 39.763 139.863L55.3226 108.053C56.3599 105.978 58.9532 104.249 61.0278 104.249H78.3162C80.3908 104.249 81.2552 105.978 80.2179 108.053L64.6583 139.863C63.621 141.938 61.0277 143.667 58.9531 143.667Z" fill="white"/>
<path d="M90.2455 143.667H72.957C70.8824 143.667 70.0179 141.938 71.0553 139.863L86.6148 108.053C87.6521 105.978 90.2454 104.249 92.32 104.249H109.608C111.683 104.249 112.547 105.978 111.51 108.053L95.9506 139.863C94.9133 141.938 92.3201 143.667 90.2455 143.667Z" fill="white"/>
<path d="M121.537 143.667H104.249C102.174 143.667 101.31 141.938 102.347 139.863L117.907 108.053C118.944 105.978 121.537 104.249 123.612 104.249H140.9C142.975 104.249 143.839 105.978 142.802 108.053L127.242 139.863C126.205 141.938 123.612 143.667 121.537 143.667Z" fill="white"/>
<path d="M63.7938 63.6213C61.8921 65.523 58.7802 65.523 56.8784 63.6213L50.136 56.8789C48.2343 54.9772 48.2343 51.8653 50.136 49.9635C52.0377 48.0618 55.1497 48.0618 57.0514 49.9635L63.7938 56.7059C65.6955 58.7806 65.6955 61.7196 63.7938 63.6213Z" fill="white"/>
<path d="M126.897 63.6213C128.799 65.523 131.911 65.523 133.812 63.6213L140.555 56.8789C142.457 54.9772 142.457 51.8653 140.555 49.9635C138.653 48.0618 135.541 48.0618 133.64 49.9635L126.897 56.7059C124.995 58.7806 124.995 61.7196 126.897 63.6213Z" fill="white"/>
<path d="M95.2589 50.4822C97.8522 50.4822 100.1 48.2347 100.1 45.6415V35.9599C100.1 33.3666 97.8522 31.1191 95.2589 31.1191C92.6657 31.1191 90.4182 33.3666 90.4182 35.9599V45.6415C90.4182 48.4076 92.6657 50.4822 95.2589 50.4822Z" fill="white"/>
<path d="M50.6548 95.2591C50.6548 92.6659 48.4073 90.4184 45.8141 90.4184H36.1325C33.5392 90.4184 31.2917 92.6659 31.2917 95.2591C31.2917 97.8524 33.5392 100.1 36.1325 100.1H45.8141C48.4073 100.1 50.6548 97.8524 50.6548 95.2591Z" fill="white"/>
<path d="M158.708 95.2591C158.708 92.6659 156.46 90.4184 153.867 90.4184H144.185C141.592 90.4184 139.344 92.6659 139.344 95.2591C139.344 97.8524 141.592 100.1 144.185 100.1H153.867C156.46 100.1 158.708 97.8524 158.708 95.2591Z" fill="white"/>
<path d="M132.429 97.8524L124.131 97.5067C124.131 97.161 124.131 96.6423 124.131 96.2965C124.131 80.5641 111.337 67.5977 95.4318 67.5977C79.6994 67.5977 66.733 80.3912 66.733 96.2965C66.733 96.6423 66.733 97.161 66.733 97.5067L58.4346 97.8524C58.4346 97.3338 58.4346 96.8152 58.4346 96.2965C58.4346 75.8962 75.0315 59.2993 95.4318 59.2993C115.832 59.2993 132.429 75.8962 132.429 96.2965C132.429 96.8152 132.429 97.3338 132.429 97.8524Z" fill="white"/>
</svg>
