<svg width="187" height="188" viewBox="0 0 187 188" fill="none" xmlns="http://www.w3.org/2000/svg">
<path d="M93.3575 187.061C144.917 187.061 186.715 145.263 186.715 93.7032C186.715 42.1433 144.917 0.345764 93.3575 0.345764C41.7976 0.345764 0 42.1433 0 93.7032C0 145.263 41.7976 187.061 93.3575 187.061Z" fill="#F9BC05"/>
<path d="M94.222 0C43.0483 0.518653 1.729 42.0109 1.729 93.3575C1.729 144.704 43.0483 186.196 94.222 186.715V0Z" fill="#CC9305"/>
<path d="M156.287 100.1C156.46 97.6796 156.633 95.0863 156.46 92.666C156.46 90.2456 156.114 87.8252 155.769 85.4048L143.321 83.3302L138.999 71.4011L147.297 61.8925C144.704 57.7433 141.765 53.767 138.307 50.3093L126.897 56.0145L116.524 48.9262L117.734 36.3057C113.412 34.4039 108.917 33.1938 104.076 32.3293L98.1982 43.5668L85.5777 43.9126L79.181 33.0209C74.3402 34.0582 69.6724 35.7871 65.3503 37.8617L67.252 50.4822L57.2247 58.0891L45.6415 53.0754C42.3567 56.706 39.5905 60.8552 37.343 65.1773L46.1602 74.3402L42.5295 86.4421L30.0819 89.2083C29.9091 91.6287 29.7361 94.2219 29.909 96.8151C30.0819 99.2355 30.2548 101.483 30.6006 103.73L43.2211 105.805L47.3704 117.734L38.899 127.243C41.4923 131.392 44.4313 135.368 47.889 138.826L59.2993 133.121L69.6724 140.209L68.4622 152.83C72.9571 154.731 77.6251 156.114 82.4658 156.979L88.3438 145.741L100.964 145.396L107.534 156.287C112.375 155.077 117.043 153.521 121.365 151.274L119.463 138.653L129.49 130.873L141.246 135.887C144.531 132.256 147.297 128.107 149.545 123.785L140.555 114.795L144.013 102.693L156.287 100.1ZM120.5 125.86C103.212 141.073 77.1064 139.345 61.8926 122.056C46.6788 104.768 48.4076 78.4894 65.696 63.4485C82.9845 48.2347 109.263 49.9636 124.304 67.252C139.518 84.5404 137.789 110.819 120.5 125.86Z" fill="white"/>
<path d="M102.693 61.7197L74.8589 103.558L90.7643 101.137L79.5268 129.836L111.165 88.6896L91.4558 91.9744L102.693 61.7197Z" fill="white"/>
</svg>
