<svg fill="none" height="188" viewBox="0 0 187 188" width="187" xmlns="http://www.w3.org/2000/svg"><path d="m93.3575 187.061c51.5595 0 93.3575-41.798 93.3575-93.3578 0-51.5599-41.798-93.357436-93.3575-93.357436-51.5599 0-93.3575 41.797536-93.3575 93.357436 0 51.5598 41.7976 93.3578 93.3575 93.3578z" fill="#f9bc05"/><path d="m94.222 0c-51.1737.518653-92.493 42.0109-92.493 93.3575 0 51.3465 41.3193 92.8385 92.493 93.3575z" fill="#cc9305"/><g fill="#fff"><path d="m156.287 100.1c.173-2.4204.346-5.0137.173-7.434 0-2.4204-.346-4.8408-.691-7.2612l-12.448-2.0746-4.322-11.9291 8.298-9.5086c-2.593-4.1492-5.532-8.1255-8.99-11.5832l-11.41 5.7052-10.373-7.0883 1.21-12.6205c-4.322-1.9018-8.817-3.1119-13.658-3.9764l-5.8778 11.2375-12.6205.3458-6.3967-10.8917c-4.8408 1.0373-9.5086 2.7662-13.8307 4.8408l1.9017 12.6205-10.0273 7.6069-11.5832-5.0137c-3.2848 3.6306-6.051 7.7798-8.2985 12.1019l8.8172 9.1629-3.6307 12.1019-12.4476 2.7662c-.1728 2.4204-.3458 5.0136-.1729 7.6068.1729 2.4204.3458 4.6679.6916 6.9149l12.6205 2.075 4.1493 11.929-8.4714 9.509c2.5933 4.149 5.5323 8.125 8.99 11.583l11.4103-5.705 10.3731 7.088-1.2102 12.621c4.4949 1.901 9.1629 3.284 14.0036 4.149l5.878-11.238 12.6202-.345 6.57 10.891c4.841-1.21 9.509-2.766 13.831-5.013l-1.902-12.621 10.027-7.78 11.756 5.014c3.285-3.631 6.051-7.78 8.299-12.102l-8.99-8.99 3.458-12.102zm-35.787 25.76c-17.288 15.213-43.3936 13.485-58.6074-3.804-15.2138-17.288-13.485-43.5666 3.8034-58.6075 17.2885-15.2138 43.567-13.4849 58.608 3.8035 15.214 17.2884 13.485 43.567-3.804 58.608z"/><path d="m102.693 61.7197-27.8341 41.8383 15.9054-2.421-11.2375 28.699 31.6382-41.1464-19.7092 3.2848z"/></g></svg>