<svg width="188" height="187" viewBox="0 0 188 187" fill="none" xmlns="http://www.w3.org/2000/svg">
<path d="M93.8763 186.715C145.436 186.715 187.234 144.917 187.234 93.3575C187.234 41.7976 145.436 0 93.8763 0C42.3164 0 0.518799 41.7976 0.518799 93.3575C0.518799 144.917 42.3164 186.715 93.8763 186.715Z" fill="#E75419"/>
<path d="M0 94.2219C0.518653 145.396 42.0109 186.715 93.3575 186.715C144.704 186.715 186.196 145.396 186.715 94.2219H0Z" fill="#B73E15"/>
<path d="M126.582 159.143L100.192 74.1055L98.3758 74.6692L124.766 159.707L126.582 159.143Z" fill="white"/>
<path d="M91.0473 74.5026L89.2312 73.9388L62.8322 158.968L64.6483 159.531L91.0473 74.5026Z" fill="white"/>
<path d="M94.7406 77.1063C88.6897 77.1063 83.676 72.0927 83.676 66.0417C83.676 59.9908 88.6897 54.9771 94.7406 54.9771C100.792 54.9771 105.805 59.9908 105.805 66.0417C105.805 72.0927 100.792 77.1063 94.7406 77.1063ZM94.7406 56.8789C89.727 56.8789 85.5778 61.0281 85.5778 66.0417C85.5778 71.0554 89.727 75.2046 94.7406 75.2046C99.7542 75.2046 103.903 71.0554 103.903 66.0417C103.903 61.0281 99.7542 56.8789 94.7406 56.8789Z" fill="white"/>
<path d="M73.303 75.5504C68.1165 68.4622 68.1165 61.3739 73.303 55.3229L74.686 56.5331C71.4012 60.3366 68.808 66.3875 74.686 74.513L73.303 75.5504Z" fill="white"/>
<path d="M64.3129 87.8251C58.6077 83.1573 55.15 73.6486 55.6687 64.14C56.0144 55.4958 59.645 48.2346 65.5231 44.2583L66.5604 45.8143C61.201 49.4449 57.9162 56.1874 57.5704 64.3129C57.2246 73.3029 60.3366 82.2929 65.5231 86.4421L64.3129 87.8251Z" fill="white"/>
<path d="M52.7298 99.5812C45.2958 94.3947 40.1092 81.0827 39.9363 66.3876C39.7634 51.3466 44.95 39.0718 54.1128 32.5022L55.1502 34.0582C46.5059 40.282 41.6652 52.0382 41.6652 66.3876C41.838 80.2183 46.6788 93.1846 53.5942 98.0253L52.7298 99.5812Z" fill="white"/>
<path d="M113.066 117.388H76.5876V119.29H113.066V117.388Z" fill="white"/>
<path d="M119.29 137.789H70.3638V139.69H119.29V137.789Z" fill="white"/>
<path d="M116.697 75.8962L115.141 74.8588C121.019 66.9061 118.426 60.6824 115.141 56.8789L116.524 55.6687C121.883 61.7196 121.883 68.8079 116.697 75.8962Z" fill="white"/>
<path d="M125.687 88.1709L124.477 86.7878C129.663 82.4657 132.948 73.6487 132.429 64.6587C132.084 56.5331 128.799 49.7906 123.439 46.1601L124.477 44.6041C130.355 48.5804 133.985 55.8415 134.331 64.4857C134.85 73.9944 131.219 83.503 125.687 88.1709Z" fill="white"/>
<path d="M137.27 99.927L136.233 98.3711C143.148 93.5304 148.162 80.564 148.162 66.7332C148.335 52.3838 143.321 40.4549 134.677 34.404L135.714 32.848C144.877 39.4176 150.064 51.6923 149.891 66.7332C149.891 81.4284 144.877 94.7405 137.27 99.927Z" fill="white"/>
</svg>
