<svg fill="none" height="188" viewBox="0 0 188 188" width="188" xmlns="http://www.w3.org/2000/svg"><path d="m94.3948 187.061c51.5602 0 93.3572-41.798 93.3572-93.3578 0-51.5599-41.797-93.357436-93.3572-93.357436-51.5599 0-93.35745 41.797536-93.35745 93.357436 0 51.5598 41.79755 93.3578 93.35745 93.3578z" fill="#e8d207"/><path d="m92.493 0c-51.1737.518653-92.493 42.0109-92.493 93.3575 0 51.3465 41.3193 92.8385 92.493 93.3575z" fill="#aa9f13"/><g fill="#fff"><path d="m108.225 81.0827v-15.9053h-8.2982v15.9053h-15.7324v-15.9053h-8.2984v17.1155l-7.6069 5.0136v26.1055l14.0035 12.621-.1728 44.604h19.0172l.692-43.394 14.695-15.214v-24.0309z"/><path d="m154.558 93.1846c.173-2.4204.346-5.0136.173-7.434 0-2.4204-.346-4.8408-.691-7.2611l-12.448-2.0747-4.322-11.929 8.298-9.5086c-2.593-4.1493-5.532-8.1255-8.99-11.5832l-11.41 5.7052-10.373-7.0884 1.21-12.6205c-4.322-1.9017-8.817-3.1119-13.658-3.9763l-5.8778 11.2375-12.6205.3458-6.3967-10.8917c-4.8408 1.0373-9.5086 2.7661-13.8307 4.8407l1.9017 12.6205-10.0273 7.607-11.5832-5.0137c-3.2848 3.6306-6.051 7.7798-8.2985 12.1019l8.8172 9.1628-3.6307 12.1019-12.4476 2.7662c-.1728 2.4204-.3458 5.0136-.1729 7.6069.1729 2.4204.3458 4.6679.6916 6.9153l12.6205 2.0747 4.1493 11.9292-8.4714 9.508c2.5933 4.15 5.5323 8.126 8.99 11.584l10.2001-5.014v-17.116c-10.7188-16.9422-7.7798-39.59 7.7798-53.2478 17.2884-15.2139 43.5671-13.485 58.6081 3.8034 13.658 15.3867 13.657 38.2074 1.037 53.5944v13.312l3.976-3.112 11.756 5.014c3.285-3.631 6.051-7.78 8.299-12.102l-8.99-8.99 3.458-12.1023z"/></g></svg>