<svg fill="none" height="187" viewBox="0 0 188 187" width="188" xmlns="http://www.w3.org/2000/svg"><path d="m93.8763 186.715c51.5597 0 93.3577-41.798 93.3577-93.3575 0-51.5599-41.798-93.3575-93.3577-93.3575-51.5599 0-93.357501 41.7976-93.357501 93.3575 0 51.5595 41.797601 93.3575 93.357501 93.3575z" fill="#e75419"/><path d="m0 94.2219c.518653 51.1741 42.0109 92.4931 93.3575 92.4931 51.3465 0 92.8385-41.319 93.3575-92.4931z" fill="#b73e15"/><g fill="#fff"><path d="m126.582 159.143-26.39-85.0375-1.8162.5637 26.3902 85.0378z"/><path d="m91.0473 74.5026-1.8161-.5638-26.399 85.0292 1.8161.563z"/><path d="m94.7406 77.1063c-6.0509 0-11.0646-5.0136-11.0646-11.0646 0-6.0509 5.0137-11.0646 11.0646-11.0646 6.0514 0 11.0644 5.0137 11.0644 11.0646 0 6.051-5.013 11.0646-11.0644 11.0646zm0-20.2274c-5.0136 0-9.1628 4.1492-9.1628 9.1628 0 5.0137 4.1492 9.1629 9.1628 9.1629s9.1624-4.1492 9.1624-9.1629c0-5.0136-4.1488-9.1628-9.1624-9.1628z"/><path d="m73.303 75.5504c-5.1865-7.0882-5.1865-14.1765 0-20.2275l1.383 1.2102c-3.2848 3.8035-5.878 9.8544 0 17.9799z"/><path d="m64.3129 87.8251c-5.7052-4.6678-9.1629-14.1765-8.6442-23.6851.3457-8.6442 3.9763-15.9054 9.8544-19.8817l1.0373 1.556c-5.3594 3.6306-8.6442 10.3731-8.99 18.4986-.3458 8.99 2.7662 17.98 7.9527 22.1292z"/><path d="m52.7298 99.5812c-7.434-5.1865-12.6206-18.4985-12.7935-33.1936-.1729-15.041 5.0137-27.3158 14.1765-33.8854l1.0374 1.556c-8.6443 6.2238-13.485 17.98-13.485 32.3294.1728 13.8307 5.0136 26.797 11.929 31.6377z"/><path d="m113.066 117.388h-36.4784v1.902h36.4784z"/><path d="m119.29 137.789h-48.9262v1.901h48.9262z"/><path d="m116.697 75.8962-1.556-1.0374c5.878-7.9527 3.285-14.1764 0-17.9799l1.383-1.2102c5.359 6.0509 5.359 13.1392.173 20.2275z"/><path d="m125.687 88.1709-1.21-1.3831c5.186-4.3221 8.471-13.1391 7.952-22.1291-.345-8.1256-3.63-14.8681-8.99-18.4986l1.038-1.556c5.878 3.9763 9.508 11.2374 9.854 19.8816.519 9.5087-3.112 19.0173-8.644 23.6852z"/><path d="m137.27 99.927-1.037-1.5559c6.915-4.8407 11.929-17.8071 11.929-31.6379.173-14.3494-4.841-26.2783-13.485-32.3292l1.037-1.556c9.163 6.5696 14.35 18.8443 14.177 33.8852 0 14.6952-5.014 28.0073-12.621 33.1938z"/></g></svg>