<svg xmlns="http://www.w3.org/2000/svg" viewBox="0 0 101.75 73.28"><defs><style>.cls-1{fill:#7b2026;}</style></defs><title>Ativo 2</title><g id="Camada_2" data-name="Camada 2"><g id="Camada_1-2" data-name="Camada 1"><path class="cls-1" d="M.46,48.66C5,64.25,48,61,77.37,51.87c1.42-.44,6.45-10.06,12.69-19.41.6-.91-67.25,31.77-80.12,15.69C4.18,40.94,25.4,26.92,46.32,23.28c21.35-4.23,43.13-2,43.13-2S102,0,101.74,0C99.51.29,71.29.66,46.48,9,17,18.8-3.36,35.46.46,48.66"/><path class="cls-1" d="M10.57,47.43a9,9,0,0,0,3.53,1.46c4.69-3.69,12.19-7.18,21-8.93a146.24,146.24,0,0,1,32-2.47S78.84,22.8,78.61,22.83c-1.68.23-24.78,1.37-43.5,7.58-10.4,3.45-19,8.36-24.72,13.52a4,4,0,0,0,.18,3.5"/><path class="cls-1" d="M86.63,60.71c4.35-6.55,8.39-13.34,7-12.09-6.23,5.58-56.25,25.45-82,11.65a8.85,8.85,0,0,1-2.08-1.78,25.35,25.35,0,0,1-3.66-1.64,17.77,17.77,0,0,1-3-2.29,8.78,8.78,0,0,0,.29,6.17c8,17.58,56.09,13.19,78.37,7.73.42-.1,2.46-3.72,5.14-7.75"/></g></g></svg>