<svg viewBox="0 0 101.75 73.28" xmlns="http://www.w3.org/2000/svg"><g fill="#7b2026"><path d="m.46 48.66c4.54 15.59 47.54 12.34 76.91 3.21 1.42-.44 6.45-10.06 12.69-19.41.6-.91-67.25 31.77-80.12 15.69-5.76-7.21 15.46-21.23 36.38-24.87 21.35-4.23 43.13-2 43.13-2s12.55-21.28 12.29-21.28c-2.23.29-30.45.66-55.26 9-29.48 9.8-49.84 26.46-46.02 39.66"/><path d="m10.57 47.43a9 9 0 0 0 3.53 1.46c4.69-3.69 12.19-7.18 21-8.93a146.24 146.24 0 0 1 32-2.47s11.74-14.69 11.51-14.66c-1.68.23-24.78 1.37-43.5 7.58-10.4 3.45-19 8.36-24.72 13.52a4 4 0 0 0 .18 3.5"/><path d="m86.63 60.71c4.35-6.55 8.39-13.34 7-12.09-6.23 5.58-56.25 25.45-82 11.65a8.85 8.85 0 0 1 -2.08-1.78 25.35 25.35 0 0 1 -3.66-1.64 17.77 17.77 0 0 1 -3-2.29 8.78 8.78 0 0 0 .29 6.17c8 17.58 56.09 13.19 78.37 7.73.42-.1 2.46-3.72 5.14-7.75"/></g></svg>