<svg fill="none" height="463" viewBox="0 0 512 463" width="512" xmlns="http://www.w3.org/2000/svg"><g fill="#f3960e"><path d="m462.452 0h-412.9036c-27.2516 0-49.5484 22.2968-49.5484 49.5484s22.2968 49.5484 49.5484 49.5484h412.9036c27.251 0 49.548-22.2968 49.548-49.5484s-22.297-49.5484-49.548-49.5484z"/><path d="m462.452 181.677h-412.9036c-27.2516 0-49.5484 22.297-49.5484 49.549 0 27.251 22.2968 49.548 49.5484 49.548h412.9036c27.251 0 49.548-22.297 49.548-49.548 0-27.252-22.297-49.549-49.548-49.549z"/><path d="m462.452 363.355h-412.9036c-27.2516 0-49.5484 22.297-49.5484 49.548 0 27.252 22.2968 49.549 49.5484 49.549h412.9036c27.251 0 49.548-22.297 49.548-49.549 0-27.251-22.297-49.548-49.548-49.548z"/></g></svg>