<svg width="512" height="463" viewBox="0 0 512 463" fill="none" xmlns="http://www.w3.org/2000/svg">
<path d="M462.452 0H49.5484C22.2968 0 0 22.2968 0 49.5484C0 76.8 22.2968 99.0968 49.5484 99.0968H462.452C489.703 99.0968 512 76.8 512 49.5484C512 22.2968 489.703 0 462.452 0Z" fill="#F3960E"/>
<path d="M462.452 181.677H49.5484C22.2968 181.677 0 203.974 0 231.226C0 258.477 22.2968 280.774 49.5484 280.774H462.452C489.703 280.774 512 258.477 512 231.226C512 203.974 489.703 181.677 462.452 181.677Z" fill="#F3960E"/>
<path d="M462.452 363.355H49.5484C22.2968 363.355 0 385.652 0 412.903C0 440.155 22.2968 462.452 49.5484 462.452H462.452C489.703 462.452 512 440.155 512 412.903C512 385.652 489.703 363.355 462.452 363.355Z" fill="#F3960E"/>
</svg>
