<svg fill="none" height="422" viewBox="0 0 2074 422" width="2074" xmlns="http://www.w3.org/2000/svg"><g fill="#fff"><g clip-rule="evenodd" fill-rule="evenodd"><path d="m911.315 12.3171h-301.505c-32.936 0-59.98 27.0444-59.98 59.9797v289.7232c0 32.935 27.044 59.98 59.98 59.98h301.505c32.935 0 59.979-27.045 59.979-59.98v-289.7232c0-32.9353-27.044-59.9797-59.979-59.9797zm-80.063 103.3579h-31.864c-10.978 1.607-18.743 6.426-20.082 21.421v19.547h47.394v52.75h-47.93v164.141h-73.1v-164.141h-44.182v-52.75h44.182v-14.459l-.268-15.531c-2.41-34.5414 23.564-58.9082 46.056-62.6569v-.2678h1.071c1.071-.2677 1.874-.2678 2.678-.2678v.2678h76.045z"/><path d="m1360.89 160.124h29.46c6.42 0 11.78-5.355 11.78-11.781v-28.116c0-6.426-5.36-11.782-11.78-11.782h-29.46c-6.42 0-11.78 5.356-11.78 11.782v28.116c0 6.426 5.36 11.781 11.78 11.781z"/><path d="m1452.2 0h-301.5c-32.94 0-59.98 27.0445-59.98 59.9797v289.7233c0 32.935 27.04 59.98 59.98 59.98h301.5c32.94 0 59.98-27.045 59.98-59.98v-289.7233c0-32.9352-27.04-59.9797-59.98-59.9797zm-20.62 306.86c0 18.476-14.99 33.471-33.47 33.471h-193.86c-18.47 0-33.47-14.995-33.47-33.471v-193.863c0-18.4754 15-33.4703 33.47-33.4703h193.86c18.48 0 33.47 14.9949 33.47 33.4703z"/><path d="m1301.45 260.001c28.92 0 52.48-22.76 52.48-50.608 0-28.115-23.56-50.607-52.48-50.607s-52.21 22.76-52.21 50.607c0 27.848 23.29 50.608 52.21 50.608z"/><path d="m1382.58 212.071c0 43.378-36.41 78.456-81.13 78.456s-81.13-35.078-81.13-78.456c0-7.765 1.07-15.262 3.48-22.492h-23.83v110.052c0 5.623 4.55 10.443 10.44 10.443h181.55c5.62 0 10.44-4.552 10.44-10.443v-110.052h-23.03c2.14 7.23 3.21 14.727 3.21 22.492z"/></g><path d="m1807.26 236.973v-16.333h-54.36v16.333h18.21v99.074h17.41v-99.074zm31.6 99.342v-9.372c-6.16 6.962-12.05 10.443-17.68 10.443-5.08 0-8.56-2.142-9.9-6.427-.81-2.677-1.34-6.694-1.34-12.852v-68.013h15.53v63.193c0 3.748 0 5.623.27 6.158.26 2.41 1.6 3.749 3.75 3.749 3.21 0 6.42-2.41 9.9-7.23v-65.602h15.53v85.953zm59.17-24.635c0 7.765-2.41 11.514-6.69 11.514-2.68 0-5.09-1.339-7.77-3.749v-52.482c2.68-2.677 5.09-3.749 7.77-3.749 4.55 0 6.69 4.017 6.69 11.782zm15.53-1.339v-34.274c0-8.033-.53-13.924-1.6-17.405-2.14-6.426-6.16-9.639-12.59-9.639-5.62 0-10.98 3.213-16.06 9.372v-37.755h-15.53v115.407h15.53v-8.301c5.08 6.427 10.44 9.64 16.06 9.64 6.16 0 10.45-3.213 12.59-9.64 1.07-3.749 1.6-9.372 1.6-17.405zm43.11-27.312h-15.53v-8.033c0-8.033 2.68-12.049 7.77-12.049s7.76 4.016 7.76 12.049zm15.54 25.706v-2.142h-15.8c0 6.158-.27 9.639-.27 10.443-.8 4.284-3.21 6.158-6.96 6.158-5.36 0-8.04-4.016-8.04-12.049v-15.263h31.07v-17.673c0-9.104-1.61-15.798-4.82-20.35-4.29-5.891-10.45-8.836-18.48-8.836s-14.19 2.945-18.74 8.836c-3.22 4.284-4.82 10.979-4.82 20.35v30.258c0 9.104 1.6 15.798 5.08 20.082 4.56 5.891 10.71 8.837 18.75 8.837 8.03 0 14.46-2.946 18.74-9.372 1.88-2.678 3.21-5.891 3.75-9.372.54-1.339.54-4.82.54-9.907z"/><path clip-rule="evenodd" d="m1859.48 162.267c5.08 0 7.49-4.017 7.49-12.05v-36.416c0-8.033-2.41-12.05-7.49-12.05-5.09 0-7.5 4.017-7.5 12.05v36.416c0 8.033 2.41 12.05 7.5 12.05z" fill-rule="evenodd"/><path clip-rule="evenodd" d="m2013.44 9.63965h-301.5c-32.94 0-59.98 27.04435-59.98 59.97965v289.4557c0 32.935 27.04 59.98 59.98 59.98h301.5c32.94 0 59.98-27.045 59.98-59.98v-289.4557c0-32.9353-27.04-59.97965-59.98-59.97965zm-118.08 78.45565h15.79v63.9957c0 3.749 0 5.623.27 6.159.27 2.41 1.61 3.749 3.75 3.749 3.21 0 6.43-2.41 9.91-7.498v-66.4057h15.8v86.7567h-15.8v-9.372c-6.16 7.229-12.32 10.71-17.94 10.71-5.09 0-8.57-2.142-10.18-6.426-.8-2.678-1.34-6.694-1.34-12.853v-68.8157zm-59.18 28.9187c0-9.104 1.61-16.066 4.82-20.3503 4.28-5.8908 10.44-8.8362 18.21-8.8362 7.76 0 13.92 2.9454 18.21 8.8362 3.21 4.2843 4.82 11.2463 4.82 20.3503v30.258c0 9.104-1.61 16.066-4.82 20.35-4.29 5.891-10.45 8.836-18.21 8.836-7.77 0-13.93-2.945-18.21-8.836-3.21-4.284-4.82-11.246-4.82-20.35zm-42.58-58.6408 12.32 45.7878 11.78-45.7878h17.68l-20.89 69.3518v47.127h-17.4v-47.127c-1.61-8.301-5.09-20.618-10.71-36.9521-3.75-10.7106-7.5-21.6891-11.25-32.3997zm193.33 283.0288c-3.21 13.656-14.46 23.831-27.85 25.438-31.86 3.481-64.26 3.481-96.39 3.481s-64.53 0-96.4-3.481c-13.39-1.607-24.63-11.514-27.85-25.438-4.55-19.547-4.55-40.968-4.55-61.05 0-20.083 0-41.504 4.55-61.051 3.22-13.656 14.46-23.831 27.85-25.438 31.87-3.481 64.27-3.481 96.4-3.481s64.53 0 96.39 3.481c13.39 1.607 24.64 11.514 27.85 25.438 4.55 19.547 4.55 40.7 4.55 61.051 0 20.082 0 41.503-4.55 61.05z" fill-rule="evenodd"/><path d="m169.2 338.401c-93.3422 0-169.2-75.858-169.2-169.2 0-93.3432 75.8578-169.201 169.2-169.201 93.343 0 169.201 75.8578 169.201 169.201 0 93.342-76.127 169.2-169.201 169.2zm0-280.8351c-61.6 0-111.6342 50.0341-111.6342 111.6351 0 61.6 50.0342 111.634 111.6342 111.634 61.601 0 111.635-50.034 111.635-111.634 0-61.601-50.034-111.6351-111.635-111.6351z"/><path d="m410.11 369.485-126.109-126.108-40.514 40.514 126.108 126.109z"/></g></svg>