<svg xmlns="http://www.w3.org/2000/svg" xmlns:xlink="http://www.w3.org/1999/xlink" viewBox="0 0 418.9 420.7"><defs><style>.cls-1{fill:url(#Gradiente_sem_nome);}.cls-2{fill:url(#Gradiente_sem_nome_2);}.cls-3{fill:#fff;fill-rule:evenodd;}</style><linearGradient id="Gradiente_sem_nome" x1="509.94" y1="489.53" x2="509.94" y2="895.73" gradientTransform="matrix(1, 0, 0, -1, -300.49, 902.93)" gradientUnits="userSpaceOnUse"><stop offset="0" stop-color="#20b038"/><stop offset="1" stop-color="#60d66a"/></linearGradient><linearGradient id="Gradiente_sem_nome_2" x1="509.94" y1="482.23" x2="509.94" y2="902.93" gradientTransform="matrix(1, 0, 0, -1, -300.49, 902.93)" gradientUnits="userSpaceOnUse"><stop offset="0" stop-color="#f9f9f9"/><stop offset="1" stop-color="#fff"/></linearGradient></defs><title>Ativo 1</title><g id="Camada_2" data-name="Camada 2"><g id="Camada_1-2" data-name="Camada 1"><g id="WhatsApp_Logo" data-name="WhatsApp Logo"><path id="shape_3" data-name="shape 3" class="cls-1" d="M7.3,413.4,35.9,309.1A201.29,201.29,0,0,1,9,208.5C9,97.5,99.4,7.2,210.3,7.2A201.27,201.27,0,0,1,411.6,208.6c0,111-90.4,201.3-201.3,201.3h-.1A201.39,201.39,0,0,1,114,385.4Z"/><g id="shape_2" data-name="shape 2"><g id="g30"><path id="path28" class="cls-2" d="M0,420.7l29.6-108A207.65,207.65,0,0,1,1.8,208.5C1.8,93.5,95.4,0,210.4,0A208.44,208.44,0,0,1,418.9,208.6c0,115-93.6,208.5-208.6,208.5h-.1a208.69,208.69,0,0,1-99.7-25.4Zm115.7-66.8,6.3,3.8a173.8,173.8,0,0,0,88.2,24.2h.1c95.5,0,173.3-77.7,173.3-173.3A173.27,173.27,0,0,0,210.3,35.2c-95.6,0-173.4,77.7-173.4,173.3a172.59,172.59,0,0,0,26.5,92.2l4.1,6.6L50,371.2Z"/></g></g><g id="shape_1" data-name="shape 1"><g id="g37"><path id="path35" class="cls-3" d="M158.2,121.2c-3.9-8.7-8-8.9-11.7-9-3-.1-6.5-.1-10-.1a19.18,19.18,0,0,0-13.9,6.5c-4.8,5.2-18.2,17.8-18.2,43.5s18.7,50.4,21.3,53.9,36.1,57.8,89,78.7c44,17.4,53,13.9,62.5,13s30.8-12.6,35.2-24.8,4.3-22.6,3-24.8-4.8-3.5-10-6.1-30.8-15.2-35.6-17-8.3-2.6-11.7,2.6-13.5,16.9-16.5,20.4-6.1,3.9-11.3,1.3-22-8.1-41.9-25.9c-15.5-13.8-26-30.9-29-36.1s-.3-8,2.3-10.6c2.3-2.3,5.2-6.1,7.8-9.1s3.5-5.2,5.2-8.7.9-6.5-.4-9.1-11.5-28.3-16.1-38.6Z"/></g></g></g></g></g></svg>